:FULLY-SPECIFIED
:FORCE-ALL-JOINTS-BE-3DOF
:DEGREES
917
root 2.69241 16.0654 32.3787 0.436583 17.6242 0.956245
lfemur -22.6627 21.6567 -12.937
ltibia 44.5717 -0 0
lfoot -13.2404 -3.89007 -0.187728
ltoes 11.5016 -0 0
rfemur -17.6511 -6.51238 -5.18378
rtibia 63.9445 -0 0
rfoot 2.48924 -25.2397 -0.711609
rtoes 37.1428 -0 0
lowerback 1.83897 -1.36775 -2.67086
upperback -0.19777 -1.92897 -2.30435
thorax -1.26846 -0.948312 -0.843864
lowerneck -6.10536 -6.12071 -2.02
upperneck 3.88781 -8.28746 4.56261
head 2.65345 -3.99719 1.42589
lclavicle -2.00264e-15 8.48149e-15 0
lhumerus -47.2024 -37.8288 103.622
lradius 54.8033 -0 0
lwrist 11.1632 0 0
lhand 27.7702 16.0752 0.0320207
lfingers 7.12502 0 0
lthumb 49.2824 32.4728 -0.0250918
rclavicle -2.00264e-15 8.48149e-15 0
rhumerus -45.0472 22.2114 -95.6978
rradius 114.357 -0 0
rwrist -6.76663 0 0
rhand 18.2645 0.236676 -3.40621
rfingers 7.12502 0 0
rthumb 40.3903 -22.271 -3.50285
918
root 2.62275 16.0422 32.4231 0.523185 16.9751 0.917102
lfemur -21.9936 21.0713 -12.4842
ltibia 43.3049 -0 0
lfoot -12.8744 -3.57298 -0.164682
ltoes 11.1133 -0 0
rfemur -16.4996 -5.94681 -5.25331
rtibia 61.6893 -0 0
rfoot 2.20306 -24.942 -0.796084
rtoes 36.8907 -0 0
lowerback 1.6594 -1.29064 -2.52931
upperback -0.240155 -1.82059 -2.20308
thorax -1.21728 -0.893978 -0.82918
lowerneck -5.863 -5.94036 -1.98577
upperneck 3.73284 -8.03896 4.38273
head 2.55284 -3.87889 1.37407
lclavicle -1.9837e-15 7.4213e-15 0
lhumerus -45.4001 -38.1095 100.729
lradius 52.9264 -0 0
lwrist 10.6653 0 0
lhand 26.7498 15.4993 0.0228844
lfingers 7.12502 0 0
lthumb 47.5622 31.3395 -0.0244959
rclavicle -1.9837e-15 7.4213e-15 0
rhumerus -43.4499 22.8127 -93.6433
rradius 112.301 -0 0
rwrist -6.38256 0 0
rhand 18.0935 0.655658 -3.60165
rfingers 7.12502 0 0
rthumb 39.4434 -21.0074 -3.71052
919
root 2.55309 16.0189 32.4674 0.619165 16.4456 0.902134
lfemur -21.4337 20.5807 -12.0794
ltibia 42.2534 -0 0
lfoot -12.6015 -3.43521 -0.152213
ltoes 10.8287 -0 0
rfemur -15.5784 -5.46083 -5.36294
rtibia 59.8392 -0 0
rfoot 1.94945 -24.7602 -0.879196
rtoes 36.5583 -0 0
lowerback 1.49199 -1.22619 -2.41668
upperback -0.283357 -1.72942 -2.14093
thorax -1.17355 -0.84857 -0.837724
lowerneck -5.68389 -5.80105 -1.95918
upperneck 3.61575 -7.84718 4.25165
head 2.47738 -3.78755 1.33651
lclavicle -1.96477e-15 6.36111e-15 0
lhumerus -44.1052 -38.2798 98.4473
lradius 51.5052 -0 0
lwrist 10.3048 0 0
lhand 26.0357 15.1082 0.0180613
lfingers 7.12502 0 0
lthumb 46.3096 30.4989 -0.0248676
rclavicle -1.96477e-15 6.36111e-15 0
rhumerus -42.2754 23.4447 -91.968
rradius 110.663 -0 0
rwrist -6.07388 0 0
rhand 18.053 0.993691 -3.78859
rfingers 7.12502 0 0
rthumb 38.8233 -20.039 -3.9066
920
root 2.48343 15.9957 32.5118 0.728759 16.0646 0.91626
lfemur -21.0141 20.2125 -11.7334
ltibia 41.4909 -0 0
lfoot -12.4434 -3.51643 -0.153186
ltoes 10.6763 -0 0
rfemur -14.9268 -5.06495 -5.52867
rtibia 58.548 -0 0
rfoot 1.73229 -24.7357 -0.960608
rtoes 36.1411 -0 0
lowerback 1.33689 -1.17666 -2.33879
upperback -0.32867 -1.65855 -2.12633
thorax -1.13879 -0.813646 -0.874932
lowerneck -5.58191 -5.71325 -1.94315
upperneck 3.54495 -7.72657 4.18022
head 2.43277 -3.73001 1.31653
lclavicle -1.94584e-15 5.30093e-15 0
lhumerus -43.4465 -38.3547 97.1672
lradius 50.6855 -0 0
lwrist 10.1104 0 0
lhand 25.7026 14.9451 0.0183056
lfingers 7.12502 0 0
lthumb 45.662 30.0266 -0.0264903
rclavicle -1.94584e-15 5.30093e-15 0
rhumerus -41.6502 24.1159 -90.9315
rradius 109.759 -0 0
rwrist -5.85363 0 0
rhand 18.1899 1.2465 -3.97173
rfingers 7.12502 0 0
rthumb 38.6332 -19.4198 -4.09623
921
root 2.41377 15.9725 32.5562 0.857151 15.8601 0.965096
lfemur -20.765 19.9928 -11.4563
ltibia 41.0878 -0 0
lfoot -12.4225 -3.8618 -0.170447
ltoes 10.6853 -0 0
rfemur -14.5846 -4.769 -5.76861
rtibia 57.958 -0 0
rfoot 1.55469 -24.9105 -1.03998
rtoes 35.6335 -0 0
lowerback 1.19341 -1.14428 -2.30158
upperback -0.377716 -1.6109 -2.16862
thorax -1.11439 -0.790704 -0.947137
lowerneck -5.5716 -5.68752 -1.94055
upperneck 3.52923 -7.69172 4.1799
head 2.42488 -3.71315 1.31762
lclavicle -1.92691e-15 4.24074e-15 0
lhumerus -43.5552 -38.3475 97.2446
lradius 50.6078 -0 0
lwrist 10.1124 0 0
lhand 25.8286 15.0562 0.0243277
lfingers 7.12502 0 0
lthumb 45.7552 29.9991 -0.029634
rclavicle -1.92691e-15 4.24074e-15 0
rhumerus -41.7029 24.831 -90.7853
rradius 109.88 -0 0
rwrist -5.73504 0 0
rhand 18.5544 1.4091 -4.15606
rfingers 7.12502 0 0
rthumb 38.9784 -19.2057 -4.28468
922
root 2.34411 15.9493 32.6006 1.01078 15.8605 1.05567
lfemur -20.7155 19.945 -11.257
ltibia 41.1092 -0 0
lfoot -12.5629 -4.5278 -0.206853
ltoes 10.888 -0 0
rfemur -14.5969 -4.58362 -6.10378
rtibia 58.1949 -0 0
rfoot 1.41974 -25.3269 -1.1168
rtoes 35.0255 -0 0
lowerback 1.06002 -1.13136 -2.31168
upperback -0.432477 -1.58956 -2.27906
thorax -1.10167 -0.781315 -1.06228
lowerneck -5.66938 -5.73493 -1.95415
upperneck 3.57836 -7.75791 4.26372
head 2.4603 -3.74424 1.34375
lclavicle -1.90798e-15 3.18056e-15 0
lhumerus -44.5739 -38.2382 98.9251
lradius 51.4069 -0 0
lwrist 10.3462 0 0
lhand 26.5007 15.4943 0.0368535
lfingers 7.12502 0 0
lthumb 46.7265 30.4972 -0.0345444
rclavicle -1.90798e-15 3.18056e-15 0
rhumerus -42.5727 25.5784 -91.7306
rradius 111.216 -0 0
rwrist -5.73291 0 0
rhand 19.2011 1.47342 -4.34634
rfingers 7.12502 0 0
rthumb 39.9671 -19.4603 -4.47647
923
root 2.27445 15.926 32.6449 1.1977 16.0961 1.1973
lfemur -20.8944 20.0894 -11.1436
ltibia 41.6134 -0 0
lfoot -12.8918 -5.58936 -0.265298
ltoes 11.3224 -0 0
rfemur -15.0196 -4.52205 -6.5591
rtibia 59.3609 -0 0
rfoot 1.33156 -26.0265 -1.19016
rtoes 34.2986 -0 0
lowerback 0.934409 -1.14063 -2.37714
upperback -0.495335 -1.59805 -2.47207
thorax -1.1019 -0.787294 -1.23076
lowerneck -5.89497 -5.86766 -1.98662
upperneck 3.70407 -7.94195 4.44747
head 2.54685 -3.83126 1.39962
lclavicle -1.88904e-15 2.12037e-15 0
lhumerus -46.6634 -37.952 102.26
lradius 53.2081 -0 0
lwrist 10.855 0 0
lhand 27.8196 16.3233 0.056689
lfingers 7.12502 0 0
lthumb 48.7134 31.6096 -0.0414252
rclavicle -1.88904e-15 2.12037e-15 0
rhumerus -44.4156 26.3185 -93.8702
rradius 113.772 -0 0
rwrist -5.86523 0 0
rhand 20.1912 1.42545 -4.54659
rfingers 7.12502 0 0
rthumb 41.7096 -20.2615 -4.67422
924
root 2.20479 15.9028 32.6893 1.42801 16.6003 1.4026
lfemur -21.3301 20.4428 -11.1237
ltibia 42.6492 -0 0
lfoot -13.4404 -7.14811 -0.348721
ltoes 12.0346 -0 0
rfemur -15.925 -4.60207 -7.1645
rtibia 61.5223 -0 0
rfoot 1.29649 -27.0491 -1.25846
rtoes 33.4208 -0 0
lowerback 0.813469 -1.17549 -2.50818
upperback -0.56912 -1.6407 -2.76662
thorax -1.11637 -0.810891 -1.46643
lowerneck -6.2731 -6.09961 -2.04046
upperneck 3.92096 -8.26295 4.75113
head 2.6942 -3.98335 1.49117
lclavicle -1.87011e-15 1.06019e-15 0
lhumerus -49.9982 -37.3756 107.029
lradius 56.1127 -0 0
lwrist 11.694 0 0
lhand 29.9036 17.6222 0.0847759
lfingers 7.12502 0 0
lthumb 51.8421 33.4338 -0.0504036
rclavicle -1.87011e-15 1.06019e-15 0
rhumerus -47.4047 26.98 -97.1603
rradius 117.335 -0 0
rwrist -6.15506 0 0
rhand 21.5936 1.24196 -4.75944
rfingers 7.12502 0 0
rthumb 44.3113 -21.7084 -4.87699
925
root 2.13513 15.8796 32.7337 4.39544 3.84042 364.759
lfemur -1.06315 -6.31122 2.8412
ltibia 7.52681 0 0
lfoot -7.2256 -46.3024 0
ltoes 13.1266 0 0
rfemur -21.1112 -2.49084 -10.9972
rtibia 39.9781 0 0
rfoot 0.283837 -7.68699 0
rtoes -46.4005 0 0
lowerback -3.23548 -0.47587 -2.6665
upperback -1.41089 -0.503662 -7.21775
thorax 0.318308 -0.259537 -6.011
lowerneck -7.03814 -2.23507 0.230682
upperneck 3.87724 -3.34467 5.86185
head 2.57656 -1.47165 1.70594
lclavicle -1.85118e-15 0 0
lhumerus -53.5254 -38.4352 106.474
lradius 57.8015 0 0
lwrist 18.1533 0 0
lhand 44.117 27.5203 0
lfingers 7.12502 0 0
lthumb 65.7072 33.474 0
rclavicle -1.85118e-15 0 0
rhumerus -55.8381 46.9807 -74.5842
rradius 114.708 0 0
rwrist -5.65682 0 0
rhand 22.8247 -10.4969 0
rfingers 7.12502 0 0
rthumb 47.1569 -753.094 0
